<svg xmlns="http://www.w3.org/2000/svg" viewBox="0 0 40 40" width="40" height="40" fill="none">
  <path d="M20 3L5 9v10c0 9.5 6.4 18.4 15 21 8.6-2.6 15-11.5 15-21V9L20 3z" fill="#185FA5"/>
  <rect x="11" y="14" width="4" height="4" rx="1" fill="white" opacity="0.9"/>
  <rect x="17" y="14" width="4" height="4" rx="1" fill="white" opacity="0.9"/>
  <rect x="23" y="14" width="4" height="4" rx="1" fill="white" opacity="0.9"/>
  <rect x="11" y="20" width="4" height="4" rx="1" fill="white" opacity="0.9"/>
  <rect x="17" y="20" width="2" height="2" rx="0.5" fill="white" opacity="0.9"/>
  <rect x="23" y="20" width="4" height="4" rx="1" fill="white" opacity="0.9"/>
  <rect x="11" y="26" width="4" height="4" rx="1" fill="white" opacity="0.9"/>
  <rect x="19" y="26" width="6" height="4" rx="1" fill="white" opacity="0.9"/>
</svg>